<?xml version="1.0" encoding="utf-8"?>
<svg width="64" height="64" viewBox="0 0 64 64" fill="none" xmlns="http://www.w3.org/2000/svg">
  <defs>
    <clipPath id="clip_path_1">
      <rect width="64" height="64" />
    </clipPath>
  </defs>
  <g clip-path="url(#clip_path_1)">
    <rect width="4" height="12" fill="#000000" fill-rule="evenodd" transform="translate(12 52)" />
    <rect width="4" height="8" fill="#000000" fill-rule="evenodd" transform="translate(24 56)" />
    <rect width="4" height="16" fill="#000000" fill-rule="evenodd" transform="translate(44 48)" />
    <rect width="4" height="8" fill="#000000" fill-rule="evenodd" transform="translate(52 56)" />
    <rect width="4" height="8" fill="#000000" fill-rule="evenodd" transform="translate(52 56)" />
    <rect width="8" height="8" fill="#FFFFFF" fill-rule="evenodd" transform="translate(16 56)" />
    <rect width="16" height="8" fill="#FFFFFF" fill-rule="evenodd" transform="translate(28 56)" />
    <rect width="4" height="4" fill="#000000" fill-rule="evenodd" transform="translate(48 52)" />
    <rect width="4" height="8" fill="#FFFFFF" fill-rule="evenodd" transform="translate(48 56)" />
    <rect width="4" height="4" fill="#000000" fill-rule="evenodd" transform="translate(16 52)" />
    <rect width="8" height="4" fill="#000000" fill-rule="evenodd" transform="translate(16 48)" />
    <rect width="8" height="4" fill="#000000" fill-rule="evenodd" transform="translate(20 44)" />
    <rect width="4" height="4" fill="#000000" fill-rule="evenodd" transform="translate(28 52)" />
    <rect width="4" height="4" fill="#000000" fill-rule="evenodd" transform="translate(8 48)" />
    <rect width="4" height="4" fill="#000000" fill-rule="evenodd" transform="translate(12 44)" />
    <rect width="4" height="4" fill="#000000" fill-rule="evenodd" transform="translate(16 40)" />
    <rect width="4" height="4" fill="#000000" fill-rule="evenodd" transform="translate(12 36)" />
    <rect width="4" height="4" fill="#000000" fill-rule="evenodd" transform="translate(8 40)" />
    <rect width="8" height="4" fill="#000000" fill-rule="evenodd" transform="translate(4 32)" />
    <rect width="4" height="4" fill="#000000" fill-rule="evenodd" transform="translate(4 36)" />
    <rect width="8" height="4" fill="#FFFFFF" fill-rule="evenodd" transform="translate(20 52)" />
    <rect width="8" height="4" fill="#FFFFFF" fill-rule="evenodd" transform="translate(24 48)" />
    <rect width="12" height="4" fill="#FFFFFF" fill-rule="evenodd" transform="translate(28 44)" />
    <rect width="12" height="8" fill="#FFFFFF" fill-rule="evenodd" transform="translate(32 48)" />
    <rect width="4" height="4" fill="#000000" fill-rule="evenodd" transform="translate(40 44)" />
    <rect width="4" height="4" fill="#FFFFFF" fill-rule="evenodd" transform="translate(12 48)" />
    <rect width="4" height="4" fill="#FFFFFF" fill-rule="evenodd" transform="translate(16 44)" />
    <rect width="4" height="4" fill="#FFFFFF" fill-rule="evenodd" transform="translate(20 40)" />
    <rect width="4" height="4" fill="#FFFFFF" fill-rule="evenodd" transform="translate(12 40)" />
    <rect width="4" height="4" fill="#FFFFFF" fill-rule="evenodd" transform="translate(8 36)" />
    <rect width="20" height="4" fill="#000000" fill-rule="evenodd" transform="translate(24 40)" />
    <rect width="20" height="4" fill="#000000" fill-rule="evenodd" transform="translate(24 8)" />
    <rect width="4" height="20" fill="#000000" fill-rule="evenodd" transform="translate(48 16)" />
    <rect width="4" height="20" fill="#000000" fill-rule="evenodd" transform="translate(16 16)" />
    <rect width="28" height="28" fill="#FFFFFF" fill-rule="evenodd" transform="translate(20 12)" />
    <rect width="4" height="4" fill="#000000" fill-rule="evenodd" transform="translate(20 12)" />
    <rect width="4" height="4" fill="#000000" fill-rule="evenodd" transform="translate(44 12)" />
    <rect width="4" height="4" fill="#000000" fill-rule="evenodd" transform="translate(20 36)" />
    <rect width="4" height="4" fill="#000000" fill-rule="evenodd" transform="translate(44 36)" />
    <rect width="4" height="8" fill="#000000" fill-rule="evenodd" transform="translate(28 24)" />
    <rect width="4" height="8" fill="#000000" fill-rule="evenodd" transform="translate(40 24)" />
  </g>
</svg>